<svg xmlns="http://www.w3.org/2000/svg" viewBox="0 0 64 64" width="64" height="64">
  <defs>
    <radialGradient id="fire-glow" cx="50%" cy="70%" r="50%">
      <stop offset="0%" stop-color="#ffdd00" stop-opacity="0.8"/>
      <stop offset="60%" stop-color="#ff6600" stop-opacity="0.4"/>
      <stop offset="100%" stop-color="#331100" stop-opacity="0"/>
    </radialGradient>
    <linearGradient id="flame-grad" x1="0%" y1="100%" x2="0%" y2="0%">
      <stop offset="0%" stop-color="#ffcc00"/>
      <stop offset="50%" stop-color="#ff6600"/>
      <stop offset="100%" stop-color="#cc2200"/>
    </linearGradient>
  </defs>
  
  <circle cx="32" cy="32" r="30" fill="#2a2a35" stroke="#5a4a42" stroke-width="3"/>
  <path d="M12,45 Q32,35 52,45 L52,58 Q32,62 12,58 Z" fill="#1a1a22"/> <ellipse cx="32" cy="46" rx="18" ry="8" fill="url(#fire-glow)"/>

  <g fill="#6d4c41" stroke="#3e2723" stroke-width="1" stroke-linecap="round">
    <circle cx="22" cy="48" r="2.5" fill="#7f8c8d" stroke="none"/>
    <circle cx="27" cy="51" r="2" fill="#95a5a6" stroke="none"/>
    <circle cx="37" cy="51" r="2" fill="#7f8c8d" stroke="none"/>
    <circle cx="42" cy="48" r="2.5" fill="#95a5a6" stroke="none"/>
    <path d="M25,48 L39,48" stroke-width="3"/>
    <path d="M28,44 L36,50" stroke-width="3"/>
    <path d="M36,44 L28,50" stroke-width="3"/>
  </g>
  
  <g fill="url(#flame-grad)">
    <path d="M32,28 Q36,38 32,46 Q28,38 32,28 Z" /> <path d="M28,32 Q24,40 28,45 Q32,40 28,32 Z" opacity="0.8"/> <path d="M36,32 Q40,40 36,45 Q32,40 36,32 Z" opacity="0.8"/> <path d="M32,38 C30,40 30,43 32,45 C34,43 34,40 32,38 Z" fill="#fffacd" opacity="0.5"/> </g>

  <path d="M45,42 C45,40 47,40 47,42 L47,46 C47,48 45,48 45,46 L43,46 C43,48 41,48 41,46 L41,42 C41,40 43,40 43,42 Z" fill="#8d6e63" stroke="#5d4037" stroke-width="1"/>

</svg>