<svg width="64" height="64" viewBox="0 0 64 64" fill="none" xmlns="http://www.w3.org/2000/svg">
<rect width="64" height="64" rx="8" fill="#7A7A7A"/>
<path d="M16 16H48V56H16V16Z" fill="#5C5C5C"/>
<path d="M32 8C32 8 44 12 48 16V24H16V16C20 12 32 8 32 8Z" fill="#9E9E9E"/>
<path d="M20 28H44V56H20V28Z" fill="#424242"/>
<path d="M24 36H40" stroke="#7A7A7A" stroke-width="2"/>
<path d="M24 44H40" stroke="#7A7A7A" stroke-width="2"/>
<path d="M24 52H40" stroke="#7A7A7A" stroke-width="2"/>
<path d="M32 32V56" stroke="#7A7A7A" stroke-width="2"/>
<path d="M8 16L8 56" stroke="#424242" stroke-width="2"/>
<path d="M56 16L56 56" stroke="#424242" stroke-width="2"/>
<path d="M8 16C8 16 20 8 32 8C44 8 56 16 56 16" stroke="#424242" stroke-width="2"/>
<rect x="28" y="20" width="8" height="4" fill="#D9D9D9"/>
<path d="M30 20V12" stroke="#D9D9D9" stroke-width="2"/>
<path d="M26 16H38" stroke="#D9D9D9" stroke-width="2"/>
</svg>