<svg xmlns="http://www.w3.org/2000/svg" viewBox="0 0 512 512">
  <defs>
    <linearGradient id="shopWall" x1="0%" y1="0%" x2="0%" y2="100%">
      <stop offset="0%" style="stop-color:#e59866;stop-opacity:1" /> <stop offset="100%" style="stop-color:#d35400;stop-opacity:1" /> </linearGradient>

    <linearGradient id="awningRed" x1="0%" y1="0%" x2="0%" y2="100%">
      <stop offset="0%" style="stop-color:#e74c3c;stop-opacity:1" />
      <stop offset="100%" style="stop-color:#c0392b;stop-opacity:1" />
    </linearGradient>

    <linearGradient id="glassGradient" x1="0%" y1="0%" x2="100%" y2="100%">
      <stop offset="0%" style="stop-color:#d6eaf8;stop-opacity:0.9" />
      <stop offset="100%" style="stop-color:#85c1e9;stop-opacity:0.6" />
    </linearGradient>
  </defs>

  <path d="M 60 450 L 452 450" stroke="#1a1a1a" stroke-width="12" stroke-linecap="round" />

  <rect x="120" y="180" width="272" height="270" 
        fill="url(#shopWall)" 
        stroke="#1a1a1a" 
        stroke-width="10"/>

  <path d="M 100 180 L 140 140 L 372 140 L 412 180" fill="#2c3e50" stroke="#1a1a1a" stroke-width="8"/>
  <path d="M 90 180 L 422 180 L 422 200 L 90 200 Z" fill="#27ae60" stroke="#1a1a1a" stroke-width="8"/>

  <rect x="100" y="280" width="40" height="170" fill="none"/> <rect x="100" y="390" width="40" height="40" rx="5" fill="#ecf0f1" stroke="#1a1a1a" stroke-width="6"/>
  <circle cx="120" cy="410" r="4" fill="#1a1a1a"/> <rect x="100" y="350" width="40" height="40" rx="5" fill="#ecf0f1" stroke="#1a1a1a" stroke-width="6"/>
  <circle cx="110" cy="370" r="4" fill="#1a1a1a"/> <circle cx="130" cy="370" r="4" fill="#1a1a1a"/> <rect x="100" y="310" width="40" height="40" rx="5" fill="#ecf0f1" stroke="#1a1a1a" stroke-width="6"/>
  <circle cx="110" cy="320" r="4" fill="#1a1a1a"/> <circle cx="120" cy="330" r="4" fill="#1a1a1a"/> <circle cx="130" cy="340" r="4" fill="#1a1a1a"/> <rect x="372" y="390" width="40" height="40" rx="5" fill="#ecf0f1" stroke="#1a1a1a" stroke-width="6"/>
  <circle cx="392" cy="410" r="4" fill="#1a1a1a"/>
  <rect x="372" y="350" width="40" height="40" rx="5" fill="#ecf0f1" stroke="#1a1a1a" stroke-width="6"/>
  <circle cx="382" cy="370" r="4" fill="#1a1a1a"/> <circle cx="402" cy="370" r="4" fill="#1a1a1a"/>
  <rect x="372" y="310" width="40" height="40" rx="5" fill="#ecf0f1" stroke="#1a1a1a" stroke-width="6"/>
  <circle cx="382" cy="320" r="4" fill="#1a1a1a"/> <circle cx="392" cy="330" r="4" fill="#1a1a1a"/> <circle cx="402" cy="340" r="4" fill="#1a1a1a"/>

  <path d="M 90 280 L 120 200 L 392 200 L 422 280 L 422 300 L 90 300 Z" 
        fill="#ecf0f1" stroke="#1a1a1a" stroke-width="8" stroke-linejoin="round"/>
  <path d="M 115 280 L 135 200 L 165 200 L 155 280 Z" fill="url(#awningRed)"/>
  <path d="M 195 280 L 205 200 L 235 200 L 235 280 Z" fill="url(#awningRed)"/>
  <path d="M 275 280 L 275 200 L 305 200 L 315 280 Z" fill="url(#awningRed)"/>
  <path d="M 355 280 L 345 200 L 375 200 L 395 280 Z" fill="url(#awningRed)"/>

  <rect x="160" y="310" width="192" height="140" fill="url(#glassGradient)" stroke="#1a1a1a" stroke-width="8"/>
  
  <path d="M 230 430 L 282 430 L 272 410 L 240 410 Z" fill="#7f8c8d"/> <path d="M 256 340 L 280 370 L 280 400 L 256 410 L 232 400 L 232 370 Z" fill="#f1c40f" stroke="#1a1a1a" stroke-width="4"/> <rect x="290" y="320" width="50" height="30" fill="#c0392b" rx="5"/>
  <line x1="300" y1="335" x2="330" y2="335" stroke="#fff" stroke-width="4"/> <rect x="420" y="320" width="60" height="50" fill="#f39c12" stroke="#1a1a1a" stroke-width="6" rx="5"/>
  <path d="M 435 345 L 465 345 M 450 330 L 450 355" stroke="#1a1a1a" stroke-width="4"/> </svg>