<svg xmlns="http://www.w3.org/2000/svg" viewBox="0 0 512 512">
  <defs>
    <radialGradient id="magmaGradient" cx="50%" cy="80%" r="70%" fx="50%" fy="80%">
      <stop offset="0%" style="stop-color:#f1c40f;stop-opacity:1" /> <stop offset="50%" style="stop-color:#e67e22;stop-opacity:1" /> <stop offset="100%" style="stop-color:#c0392b;stop-opacity:1" /> </radialGradient>

    <linearGradient id="stoneGradient" x1="0%" y1="0%" x2="0%" y2="100%">
      <stop offset="0%" style="stop-color:#7f8c8d;stop-opacity:1" />
      <stop offset="100%" style="stop-color:#2c3e50;stop-opacity:1" />
    </linearGradient>

    <linearGradient id="metalGradient" x1="0%" y1="0%" x2="100%" y2="100%">
      <stop offset="0%" style="stop-color:#bdc3c7;stop-opacity:1" />
      <stop offset="100%" style="stop-color:#7f8c8d;stop-opacity:1" />
    </linearGradient>
  </defs>

  <path d="M 60 450 L 452 450" stroke="#1a1a1a" stroke-width="12" stroke-linecap="round" />

  <path d="M 80 450 L 80 200 L 220 120 L 360 200 L 360 450 Z" 
        fill="url(#stoneGradient)" 
        stroke="#1a1a1a" 
        stroke-width="10" 
        stroke-linejoin="round"/>
        
  <rect x="280" y="80" width="50" height="80" fill="#7f8c8d" stroke="#1a1a1a" stroke-width="8"/>
  <circle cx="310" cy="60" r="10" fill="#95a5a6" opacity="0.6"/>
  <circle cx="330" cy="40" r="15" fill="#95a5a6" opacity="0.4"/>

  <path d="M 140 450 L 140 280 Q 220 200 300 280 L 300 450 Z" 
        fill="#1a1a1a" 
        stroke="#1a1a1a" 
        stroke-width="8"/>
        
  <path d="M 150 450 L 150 290 Q 220 220 290 290 L 290 450 Z" 
        fill="url(#magmaGradient)" />

  <path d="M 320 450 L 330 380 L 430 380 L 440 450 Z" fill="#5e2f0d" stroke="#1a1a1a" stroke-width="8"/>
  
  <path d="M 300 320 L 330 380 L 430 380 L 460 320 L 430 280 L 330 280 Z" 
        fill="url(#metalGradient)" 
        stroke="#1a1a1a" 
        stroke-width="8" 
        stroke-linejoin="round"/>

  <path d="M 360 250 L 400 250 L 420 220 L 380 190 L 340 220 Z" 
        fill="#f1c40f" 
        stroke="#c0392b" 
        stroke-width="4"/>
  <line x1="350" y1="210" x2="340" y2="200" stroke="#f1c40f" stroke-width="4"/>
  <line x1="410" y1="210" x2="420" y2="200" stroke="#f1c40f" stroke-width="4"/>
  <line x1="380" y1="180" x2="380" y2="160" stroke="#f1c40f" stroke-width="4"/>

  <g transform="translate(420, 320) rotate(30)">
    <rect x="-10" y="-100" width="20" height="120" fill="#8b4513" stroke="#1a1a1a" stroke-width="6" rx="5"/>
    <rect x="-30" y="-140" width="60" height="40" fill="#7f8c8d" stroke="#1a1a1a" stroke-width="6" rx="5"/>
  </g>

  <rect x="30" y="380" width="80" height="70" fill="#8b4513" stroke="#1a1a1a" stroke-width="8"/>
  <rect x="35" y="390" width="70" height="10" fill="#3498db" opacity="0.8"/>
  <path d="M 50 370 Q 60 360 50 350" stroke="#fff" stroke-width="4" fill="none" opacity="0.6"/>
  <path d="M 80 370 Q 90 360 80 350" stroke="#fff" stroke-width="4" fill="none" opacity="0.6"/>

  <g transform="translate(180, 130)">
    <rect x="0" y="0" width="80" height="60" fill="#2c3e50" stroke="#1a1a1a" stroke-width="6" rx="5"/>
    <path d="M 20 20 L 60 40" stroke="#ecf0f1" stroke-width="4"/>
    <rect x="45" y="30" width="15" height="15" fill="#ecf0f1" transform="rotate(15 52 37)"/>
  </g>

</svg>