<svg xmlns="http://www.w3.org/2000/svg" viewBox="0 0 512 512">
  <defs>
    <linearGradient id="goblinGreen" x1="0%" y1="0%" x2="100%" y2="100%">
      <stop offset="0%" style="stop-color:#6b8e23;stop-opacity:1" /> <stop offset="100%" style="stop-color:#2f4f2f;stop-opacity:1" /> </linearGradient>
    
    <linearGradient id="woodGradient" x1="0%" y1="0%" x2="100%" y2="0%">
      <stop offset="0%" style="stop-color:#8b4513;stop-opacity:1" />
      <stop offset="100%" style="stop-color:#5e2f0d;stop-opacity:1" />
    </linearGradient>
  </defs>

  <path d="M 120 400 
           L 240 120 
           L 380 400 
           Q 250 430 120 400 Z" 
        fill="url(#goblinGreen)" 
        stroke="#1a1a1a" 
        stroke-width="12" 
        stroke-linejoin="round"
        stroke-linecap="round"/>

  <path d="M 210 415 L 240 280 L 290 415 Z" 
        fill="#1a1a1a" 
        opacity="0.8" />

  <path d="M 160 300 L 190 290 L 185 330 L 155 340 Z" 
        fill="#8fbc8f" 
        stroke="#1a1a1a" 
        stroke-width="6" />
  <path d="M 160 305 L 165 315 M 180 300 L 185 310" stroke="#1a1a1a" stroke-width="4" />

  <path d="M 400 420 L 400 200" 
        stroke="url(#woodGradient)" 
        stroke-width="12" 
        stroke-linecap="round" />
  
  <path d="M 360 250 L 440 230" 
        stroke="url(#woodGradient)" 
        stroke-width="10" 
        stroke-linecap="round" />

  <g transform="translate(400, 180)">
    <circle cx="0" cy="0" r="35" fill="#eec" stroke="#1a1a1a" stroke-width="6" />
    <rect x="-20" y="10" width="40" height="30" rx="10" fill="#eec" stroke="#1a1a1a" stroke-width="6" />
    <circle cx="-12" cy="0" r="8" fill="#1a1a1a" />
    <circle cx="12" cy="0" r="8" fill="#1a1a1a" />
    <path d="M -4 15 L 0 10 L 4 15 Z" fill="#1a1a1a" />
  </g>

</svg>