<svg width="64px" height="64px" viewBox="0 0 64 64" xmlns="http://www.w3.org/2000/svg">
  <defs>
    <linearGradient id="normalBgGrad" x1="0%" y1="0%" x2="0%" y2="100%">
      <stop offset="0%" style="stop-color:#546E7A;stop-opacity:1" /> <stop offset="100%" style="stop-color:#37474F;stop-opacity:1" /> </linearGradient>

    <linearGradient id="ironGrad" x1="0%" y1="0%" x2="100%" y2="100%">
      <stop offset="0%" style="stop-color:#BDBDBD;stop-opacity:1" /> <stop offset="50%" style="stop-color:#9E9E9E;stop-opacity:1" /> <stop offset="100%" style="stop-color:#616161;stop-opacity:1" /> </linearGradient>

    <filter id="normalGlow">
      <feGaussianBlur stdDeviation="0.8" result="coloredBlur"/>
      <feMerge>
        <feMergeNode in="coloredBlur"/>
        <feMergeNode in="SourceGraphic"/>
      </feMerge>
    </filter>
  </defs>

  <path d="M32 4 L56 16 C56 16, 56 44, 32 60 C8 44, 8 16, 8 16 L32 4 Z" fill="url(#normalBgGrad)" stroke="#607D8B" stroke-width="2"/>
  
  <path d="M32 8 L52 18 C52 18, 52 42, 32 56 C12 42, 12 18, 12 18 L32 8 Z" fill="none" stroke="#CFD8DC" stroke-width="1" opacity="0.3"/>

  <g transform="translate(32, 32)" filter="url(#normalGlow)">
    <g transform="rotate(-45)">
      <path d="M-2 -24 L2 -24 L4 12 L0 16 L-4 12 Z" fill="url(#ironGrad)" /> <rect x="-8" y="-16" width="16" height="4" rx="1" fill="#424242" /> <rect x="-2" y="-28" width="4" height="12" fill="#616161" /> <circle cx="0" cy="-28" r="3" fill="#BDBDBD" /> </g>

    <g transform="rotate(45)">
      <path d="M-2 -24 L2 -24 L4 12 L0 16 L-4 12 Z" fill="url(#ironGrad)" /> <rect x="-8" y="-16" width="16" height="4" rx="1" fill="#424242" /> <rect x="-2" y="-28" width="4" height="12" fill="#616161" /> <circle cx="0" cy="-28" r="3" fill="#BDBDBD" /> </g>
    
    <circle cx="0" cy="0" r="4" fill="#FFFFFF" opacity="0.6" filter="url(#normalGlow)"/>
  </g>
</svg>