<svg xmlns="http://www.w3.org/2000/svg" viewBox="0 0 512 512">
  <defs>
    <linearGradient id="woodGradient" x1="0%" y1="0%" x2="100%" y2="0%">
      <stop offset="0%" style="stop-color:#8b4513;stop-opacity:1" />
      <stop offset="100%" style="stop-color:#5e2f0d;stop-opacity:1" />
    </linearGradient>

    <linearGradient id="paperGradient" x1="0%" y1="0%" x2="0%" y2="100%">
      <stop offset="0%" style="stop-color:#fdfefe;stop-opacity:1" />
      <stop offset="100%" style="stop-color:#f5eef8;stop-opacity:1" />
    </linearGradient>
  </defs>

  <path d="M 80 450 L 432 450" stroke="#1a1a1a" stroke-width="12" stroke-linecap="round" />

  <rect x="150" y="250" width="30" height="200" fill="#5e2f0d" stroke="#1a1a1a" stroke-width="8"/>
  <rect x="332" y="250" width="30" height="200" fill="#5e2f0d" stroke="#1a1a1a" stroke-width="8"/>

  <rect x="100" y="100" width="312" height="220" 
        fill="url(#woodGradient)" 
        stroke="#1a1a1a" 
        stroke-width="10"/>

  <line x1="100" y1="170" x2="412" y2="170" stroke="#1a1a1a" stroke-width="6"/>
  <line x1="100" y1="240" x2="412" y2="240" stroke="#1a1a1a" stroke-width="6"/>

  <path d="M 80 100 L 256 40 L 432 100 Z" 
        fill="#5e2f0d" 
        stroke="#1a1a1a" 
        stroke-width="10" 
        stroke-linejoin="round"/>

  <g transform="rotate(-5, 160, 200)">
    <rect x="130" y="140" width="80" height="100" fill="url(#paperGradient)" stroke="#1a1a1a" stroke-width="4"/>
    <rect x="145" y="155" width="50" height="50" fill="none" stroke="#1a1a1a" stroke-width="3"/>
    <path d="M 145 155 L 195 205" stroke="#c0392b" stroke-width="4"/>
    <path d="M 195 155 L 145 205" stroke="#c0392b" stroke-width="4"/>
    <line x1="140" y1="220" x2="200" y2="220" stroke="#1a1a1a" stroke-width="3"/>
    <line x1="140" y1="230" x2="180" y2="230" stroke="#1a1a1a" stroke-width="3"/>
    <path d="M 170 130 L 160 150 L 180 150 Z" fill="#c0392b" stroke="#1a1a1a" stroke-width="2"/>
  </g>

  <g transform="rotate(3, 260, 200)">
    <rect x="220" y="160" width="90" height="110" fill="url(#paperGradient)" stroke="#1a1a1a" stroke-width="4"/>
    <path d="M 250 190 Q 240 230 250 240 L 280 240 Q 290 230 280 190 Z" fill="#f1c40f" stroke="#1a1a1a" stroke-width="3"/>
    <circle cx="265" cy="220" r="5" fill="#fff"/> <path d="M 265 150 L 255 170 L 275 170 Z" fill="#3498db" stroke="#1a1a1a" stroke-width="2"/>
  </g>

  <g transform="rotate(8, 350, 200)">
    <rect x="330" y="150" width="70" height="90" fill="url(#paperGradient)" stroke="#1a1a1a" stroke-width="4"/>
    <text x="365" y="210" font-family="sans-serif" font-size="40" font-weight="bold" fill="#1a1a1a" text-anchor="middle">?</text>
    <path d="M 365 140 L 355 160 L 375 160 Z" fill="#2ecc71" stroke="#1a1a1a" stroke-width="2"/>
  </g>

  <circle cx="256" cy="70" r="20" fill="#1a1a1a" stroke="#fff" stroke-width="4"/>
  <circle cx="256" cy="70" r="5" fill="#fff"/> </svg>