<svg width="64px" height="64px" viewBox="0 0 64 64" xmlns="http://www.w3.org/2000/svg">
  <defs>
    <linearGradient id="rareBgGrad" x1="0%" y1="0%" x2="0%" y2="100%">
      <stop offset="0%" style="stop-color:#7B1FA2;stop-opacity:1" /> <stop offset="100%" style="stop-color:#4A148C;stop-opacity:1" /> </linearGradient>

    <linearGradient id="goldRareGrad" x1="0%" y1="100%" x2="100%" y2="0%">
      <stop offset="0%" style="stop-color:#FFC107;stop-opacity:1" /> <stop offset="50%" style="stop-color:#FFD54F;stop-opacity:1" /> <stop offset="100%" style="stop-color:#FFF9C4;stop-opacity:1" /> </linearGradient>

    <filter id="rareGlow">
      <feGaussianBlur stdDeviation="1" result="coloredBlur"/>
      <feMerge>
        <feMergeNode in="coloredBlur"/>
        <feMergeNode in="SourceGraphic"/>
      </feMerge>
    </filter>
  </defs>

  <path d="M32 2 L56 14 L50 38 C50 50, 32 60, 32 60 C32 60, 14 50, 14 38 L8 14 L32 2 Z" fill="url(#rareBgGrad)" stroke="url(#goldRareGrad)" stroke-width="2.5"/>
  
  <path d="M32 6 L48 16 L44 36 C44 44, 32 52, 32 52 C32 52, 20 44, 20 36 L16 16 L32 6 Z" fill="none" stroke="#9C27B0" stroke-width="1" opacity="0.5"/>

  <g transform="translate(32, 34)">
    <path d="M-12 -8 C -16 -12, -18 -18, -14 -24 C -18 -18, -24 -16, -26 -8 C -24 -4, -18 -2, -12 -2 L -8 8 L -4 6 L 0 10 L 4 6 L 8 8 L 12 -2 C 18 -2, 24 -4, 26 -8 C 24 -16, 18 -18, 14 -24 C 18 -18, 16 -12, 12 -8 C 8 -12, -8 -12, -12 -8 Z" fill="#263238"/>
    
    <path d="M-10 -12 L-4 -10 L-8 -6 Z" fill="url(#goldRareGrad)" filter="url(#rareGlow)"/>
    <path d="M10 -12 L4 -10 L8 -6 Z" fill="url(#goldRareGrad)" filter="url(#rareGlow)"/>
    
    <path d="M-2 0 L0 -4 L2 0 Z" fill="#000000"/>
  </g>

  <g transform="translate(32, 8)" filter="url(#rareGlow)">
     <path d="M-12 10 L-8 2 L-4 8 L0 0 L4 8 L8 2 L12 10 L0 14 Z" fill="url(#goldRareGrad)"/>
  </g>

</svg>