<svg xmlns="http://www.w3.org/2000/svg" viewBox="0 0 512 512">
  <defs>
    <linearGradient id="magicGradient" x1="0%" y1="0%" x2="100%" y2="100%">
      <stop offset="0%" style="stop-color:#8e44ad;stop-opacity:1" /> <stop offset="100%" style="stop-color:#4a235a;stop-opacity:1" /> </linearGradient>

    <linearGradient id="wallGradient" x1="0%" y1="0%" x2="0%" y2="100%">
      <stop offset="0%" style="stop-color:#5d6d7e;stop-opacity:1" />
      <stop offset="100%" style="stop-color:#2e4053;stop-opacity:1" />
    </linearGradient>

    <radialGradient id="glowGradient" cx="50%" cy="50%" r="50%" fx="50%" fy="50%">
      <stop offset="0%" style="stop-color:#aed6f1;stop-opacity:1" />
      <stop offset="100%" style="stop-color:#3498db;stop-opacity:1" />
    </radialGradient>
  </defs>

  <path d="M 60 450 L 452 450" stroke="#1a1a1a" stroke-width="12" stroke-linecap="round" />

  <path d="M 160 450 L 180 200 L 332 200 L 352 450 Z" 
        fill="url(#wallGradient)" 
        stroke="#1a1a1a" 
        stroke-width="10" 
        stroke-linejoin="round"/>

  <path d="M 140 200 
           L 256 20 
           L 372 200 
           Q 256 220 140 200 Z" 
        fill="url(#magicGradient)" 
        stroke="#1a1a1a" 
        stroke-width="10" 
        stroke-linejoin="round"/>

  <circle cx="256" cy="20" r="15" fill="#f1c40f" stroke="#1a1a1a" stroke-width="4"/>
  <ellipse cx="256" cy="20" rx="30" ry="8" fill="none" stroke="#f1c40f" stroke-width="3" transform="rotate(-15 256 20)"/>

  <path d="M 220 450 L 220 380 Q 256 350 292 380 L 292 450 Z" 
        fill="#4a235a" 
        stroke="#1a1a1a" 
        stroke-width="8"/>
  
  <path d="M 256 380 L 256 450" stroke="#1a1a1a" stroke-width="4"/>
  <circle cx="245" cy="410" r="3" fill="#aed6f1"/>
  <circle cx="267" cy="410" r="3" fill="#aed6f1"/>

  <circle cx="256" cy="280" r="35" 
          fill="url(#glowGradient)" 
          stroke="#1a1a1a" 
          stroke-width="8"/>
  <path d="M 256 245 L 256 315" stroke="#1a1a1a" stroke-width="4"/>
  <path d="M 221 280 L 291 280" stroke="#1a1a1a" stroke-width="4"/>

  <path d="M 350 180 L 420 180" stroke="#1a1a1a" stroke-width="8"/> <line x1="390" y1="180" x2="390" y2="210" stroke="#1a1a1a" stroke-width="4"/> <rect x="365" y="210" width="50" height="60" rx="5" fill="#f39c12" stroke="#1a1a1a" stroke-width="6"/>
  
  <path d="M 390 220 L 390 230 L 380 240 L 380 260 L 400 260 L 400 240 L 390 230 Z" 
        fill="#8e44ad" stroke="#1a1a1a" stroke-width="3"/>

  <path d="M 190 150 L 200 160 L 190 170 L 180 160 Z" fill="#aed6f1" opacity="0.8"/>
  <path d="M 320 120 L 325 130 L 315 130 Z" fill="#aed6f1" opacity="0.8"/>

</svg>