<svg xmlns="http://www.w3.org/2000/svg" width="24" height="24" viewBox="0 0 24 24" fill="none" stroke="currentColor" stroke-width="1.5" stroke-linecap="round" stroke-linejoin="round">
  <circle cx="12" cy="12" r="10" color="#4B0082" />

  <circle cx="12" cy="12" r="8" color="#4B0082" />

  <path d="M 12 4 L 14.5 18 L 2 9 L 22 9 L 9.5 18 Z" color="#800080" />

  <circle cx="12" cy="12" r="1.5" fill="#800080" stroke="none" />
  <path d="M 12 9.5 C 13.5 9.5 14.5 10.5 14.5 12 C 14.5 13.5 13.5 14.5 12 14.5 C 10.5 14.5 9.5 13.5 9.5 12 C 9.5 10.5 10.5 9.5 12 9.5 Z" stroke="#800080" fill="none"/>

  <path d="M 12 2 V 4" color="#4B0082" /> <path d="M 12 20 V 22" color="#4B0082" /> <path d="M 2 12 H 4" color="#4B0082" /> <path d="M 20 12 H 22" color="#4B0082" /> <circle cx="19.07" cy="4.93" r="0.5" fill="#4B0082" stroke="none" />
  <circle cx="4.93" cy="19.07" r="0.5" fill="#4B0082" stroke="none" />
  <path d="M 4.93 4.93 L 6.34 6.34" color="#4B0082" />
  <path d="M 17.66 17.66 L 19.07 19.07" color="#4B0082" />
</svg>