<svg xmlns="http://www.w3.org/2000/svg" viewBox="0 0 512 512">
  <defs>
    <linearGradient id="roofGradient" x1="0%" y1="0%" x2="0%" y2="100%">
      <stop offset="0%" style="stop-color:#d35400;stop-opacity:1" /> <stop offset="100%" style="stop-color:#a04000;stop-opacity:1" /> </linearGradient>
    
    <linearGradient id="wallGradient" x1="0%" y1="0%" x2="0%" y2="100%">
      <stop offset="0%" style="stop-color:#fdfefe;stop-opacity:1" /> <stop offset="100%" style="stop-color:#bdc3c7;stop-opacity:1" /> </linearGradient>
  </defs>

  <g>
    <rect x="110" y="220" width="100" height="200" 
          fill="url(#wallGradient)" 
          stroke="#2c3e50" 
          stroke-width="10" 
          stroke-linejoin="round"/>
    
    <path d="M 90 220 L 160 110 L 230 220 Z" 
          fill="url(#roofGradient)" 
          stroke="#2c3e50" 
          stroke-width="10" 
          stroke-linejoin="round"/>
          
    <rect x="140" y="260" width="40" height="50" rx="5" 
          fill="#85c1e9" 
          stroke="#2c3e50" 
          stroke-width="8"/>
  </g>

  <g>
    <rect x="340" y="160" width="40" height="60" 
          fill="#7f8c8d" 
          stroke="#2c3e50" 
          stroke-width="10"/>
          
    <circle cx="360" cy="140" r="15" fill="#ecf0f1" opacity="0.7"/>
    <circle cx="380" cy="110" r="20" fill="#ecf0f1" opacity="0.5"/>

    <rect x="190" y="270" width="220" height="150" 
          fill="url(#wallGradient)" 
          stroke="#2c3e50" 
          stroke-width="10" 
          stroke-linejoin="round"/>

    <path d="M 170 270 L 300 160 L 430 270 Z" 
          fill="url(#roofGradient)" 
          stroke="#2c3e50" 
          stroke-width="10" 
          stroke-linejoin="round"/>

    <circle cx="300" cy="230" r="20" 
            fill="#85c1e9" 
            stroke="#2c3e50" 
            stroke-width="8"/>

    <path d="M 270 420 L 270 330 Q 300 310 330 330 L 330 420 Z" 
          fill="#8b4513" 
          stroke="#2c3e50" 
          stroke-width="8"/>
    
    <circle cx="315" cy="370" r="5" fill="#f1c40f" />
  </g>
  
  <path d="M 80 420 L 440 420" stroke="#2c3e50" stroke-width="10" stroke-linecap="round" opacity="0.3" transform="translate(0, 5)" />

</svg>