<svg xmlns="http://www.w3.org/2000/svg" viewBox="0 0 150 180">
  <defs>
    <radialGradient id="bagGradient" cx="50%" cy="50%" r="50%" fx="50%" fy="50%">
      <stop offset="0%" style="stop-color:#f4a460;stop-opacity:1" />
      <stop offset="100%" style="stop-color:#8b4513;stop-opacity:1" />
    </radialGradient>
  </defs>
  
  <path d="M30,160 Q20,160 20,140 L35,40 Q40,20 75,20 Q110,20 115,40 L130,140 Q130,160 120,160 Z" fill="url(#bagGradient)" stroke="#6b3000" stroke-width="2"/>
  <path d="M35,40 Q75,50 115,40" fill="none" stroke="#6b3000" stroke-width="2" stroke-dasharray="5,2"/>
  <path d="M20,140 C30,155 120,155 130,140" fill="none" stroke="#6b3000" stroke-width="2"/>
  
  <path d="M40,30 Q30,10 20,20 L10,40" fill="none" stroke="#d2b48c" stroke-width="3"/>
  <path d="M110,30 Q120,10 130,20 L140,40" fill="none" stroke="#d2b48c" stroke-width="3"/>
  
  <g transform="translate(50, 80)">
    <rect x="0" y="0" width="20" height="20" fill="#e74c3c" stroke="#c0392b" stroke-width="1" transform="rotate(15)"/>
    <circle cx="10" cy="10" r="2" fill="#c0392b" transform="rotate(15)"/>
  </g>
  <g transform="translate(80, 60)">
    <polygon points="10,0 20,10 10,20 0,10" fill="#3498db" stroke="#2980b9" stroke-width="1" transform="rotate(-10)"/>
    <text x="10" y="14" font-family="sans-serif" font-size="6" text-anchor="middle" fill="#ffffff" transform="rotate(-10)">20</text>
  </g>
  <g transform="translate(60, 110)">
    <polygon points="10,0 20,17.32 0,17.32" fill="#2ecc71" stroke="#27ae60" stroke-width="1" transform="rotate(5)"/>
    <text x="10" y="12" font-family="sans-serif" font-size="6" text-anchor="middle" fill="#ffffff" transform="rotate(5)">8</text>
  </g>
  <g transform="translate(90, 100)">
    <rect x="0" y="0" width="15" height="15" fill="#f1c40f" stroke="#f39c12" stroke-width="1" transform="rotate(25)"/>
  </g>
</svg>