<svg xmlns="http://www.w3.org/2000/svg" width="100" height="100" viewBox="0 0 100 100" fill="none">
  <g transform="translate(25, 60) scale(0.8)">
    <path d="M0,-20 L17.32,-10 L17.32,10 L0,20 L-17.32,10 L-17.32,-10 Z" fill="#4CAF50" stroke="#388E3C" stroke-width="2"/>
    <path d="M0,-20 L0,0 M17.32,-10 L0,0 M17.32,10 L0,0 M0,20 L0,0 M-17.32,10 L0,0 M-17.32,-10 L0,0" stroke="#388E3C" stroke-width="2"/>
    <path d="M-5,-2 L0,-10 L5,-2 Z" fill="#A5D6A7"/> 
  </g>

  <g transform="translate(75, 55)">
    <path d="M0,-20 L17.32,-10 L17.32,10 L0,20 L-17.32,10 L-17.32,-10 Z" fill="#4CAF50" stroke="#388E3C" stroke-width="2"/>
    <path d="M0,-20 L0,0 M17.32,-10 L0,0 M17.32,10 L0,0 M0,20 L0,0 M-17.32,10 L0,0 M-17.32,-10 L0,0" stroke="#388E3C" stroke-width="2"/>
    <path d="M-5,-2 L0,-10 L5,-2 Z" fill="#A5D6A7"/>
  </g>

  <g filter="url(#glow)">
      <path d="M50,10 L30,35 L42,35 L42,80 L58,80 L58,35 L70,35 Z" fill="#FFC107" stroke="#FF9800" stroke-width="2"/>
  </g>

  <defs>
    <filter id="glow" x="-20%" y="-20%" width="140%" height="140%">
      <feGaussianBlur stdDeviation="3" result="blur"/>
      <feMerge>
        <feMergeNode in="blur"/>
        <feMergeNode in="SourceGraphic"/>
      </feMerge>
    </filter>
  </defs>
</svg>