<svg xmlns="http://www.w3.org/2000/svg" viewBox="0 0 64 64" width="64" height="64">
  <defs>
    <linearGradient id="bloodGradient" x1="0%" y1="0%" x2="0%" y2="100%">
      <stop offset="0%" style="stop-color:#e74c3c;stop-opacity:1" />
      <stop offset="100%" style="stop-color:#c0392b;stop-opacity:1" />
    </linearGradient>
  </defs>
  <path d="M32,4 C32,4 14,24 14,38 C14,49.046 22.059,58 32,58 C41.941,58 50,49.046 50,38 C50,24 32,4 32,4 Z" fill="url(#bloodGradient)" stroke="#8e281d" stroke-width="2" stroke-linejoin="round"/>
  
  <path d="M32,18 C28,25 24,28 26,34 C28,40 36,38 38,44 C39,47 36,50 34,52" fill="none" stroke="#691e15" stroke-width="3" stroke-linecap="round" stroke-linejoin="round"/>
  
  <path d="M24,48 L24,54" stroke="#8e281d" stroke-width="2" stroke-linecap="round"/>
  <path d="M40,48 L40,54" stroke="#8e281d" stroke-width="2" stroke-linecap="round"/>
  <path d="M32,54 L32,60" stroke="#8e281d" stroke-width="2" stroke-linecap="round"/>
</svg>