<?xml version="1.0" standalone="no"?>
<!DOCTYPE svg PUBLIC "-//W3C//DTD SVG 20010904//EN"
 "http://www.w3.org/TR/2001/REC-SVG-20010904/DTD/svg10.dtd">
<svg version="1.0" xmlns="http://www.w3.org/2000/svg"
 width="600.000000pt" height="328.000000pt" viewBox="0 0 600.000000 328.000000"
 preserveAspectRatio="xMidYMid meet">
<g transform="translate(0.000000,328.000000) scale(0.100000,-0.100000)"
fill="#000000" stroke="none">
<path d="M3490 3274 c-14 -3 -40 -7 -57 -10 -37 -6 -36 -2 -83 -217 -25 -112
-27 -134 -15 -146 12 -12 20 -8 59 26 25 22 60 44 78 49 25 7 39 22 59 57 14
26 42 65 62 85 20 21 37 44 37 52 0 21 -49 100 -63 100 -7 0 -21 2 -32 4 -11
2 -31 2 -45 0z m62 -61 c26 -23 22 -45 -13 -79 -17 -16 -39 -45 -49 -65 -20
-38 -47 -65 -56 -56 -3 3 9 33 26 67 17 34 29 64 27 67 -3 2 -22 -23 -42 -56
-21 -34 -41 -61 -45 -61 -4 0 4 37 17 81 12 45 23 87 23 94 0 12 22 19 74 24
11 0 28 -6 38 -16z"/>
<path d="M3700 3005 c-10 -12 -10 -19 -2 -27 15 -15 48 14 38 31 -10 15 -21
14 -36 -4z"/>
<path d="M2753 2908 c-35 -35 -63 -71 -63 -80 0 -22 162 -188 183 -188 37 0
39 46 9 189 -35 167 -39 170 -129 79z m101 -166 c16 -26 -11 -10 -56 35 l-48
47 33 34 32 33 16 -68 c8 -38 19 -74 23 -81z"/>
<path d="M2185 2898 c-14 -28 -25 -61 -25 -71 0 -11 22 -43 48 -71 26 -28 58
-69 71 -91 20 -36 36 -47 166 -109 81 -38 151 -66 160 -63 26 11 17 34 -41 99
-31 35 -81 96 -110 136 -30 39 -58 72 -62 72 -5 0 -42 34 -83 75 -42 41 -81
75 -87 75 -7 0 -23 -23 -37 -52z m91 -53 c21 -20 48 -38 60 -41 11 -3 36 -30
55 -60 19 -30 51 -75 71 -101 21 -26 36 -49 34 -51 -2 -2 -40 15 -83 37 -59
29 -83 47 -92 68 -6 15 -34 52 -61 81 -44 48 -48 56 -38 78 6 13 12 24 13 24
2 0 20 -16 41 -35z"/>
<path d="M3112 2888 c-14 -14 -16 -78 -3 -78 5 0 12 6 14 13 4 10 6 10 6 0 1
-20 19 -15 32 8 22 42 -18 88 -49 57z"/>
<path d="M3690 2802 c-33 -12 -80 -56 -80 -74 0 -13 5 -18 14 -15 8 3 17 -1
20 -9 5 -14 51 -19 80 -8 22 8 21 66 -1 92 -10 11 -25 17 -33 14z m11 -74 c-3
-4 -16 -5 -28 -2 l-22 6 22 18 c20 17 22 17 28 2 4 -9 4 -20 0 -24z"/>
<path d="M2570 2740 c0 -24 26 -38 42 -22 8 8 8 15 -2 27 -18 21 -40 19 -40
-5z"/>
<path d="M3261 2660 c-60 -139 -111 -314 -111 -376 l0 -39 30 51 c20 34 46
112 75 229 51 200 48 185 36 185 -5 0 -18 -23 -30 -50z"/>
<path d="M3428 2597 c-54 -64 -98 -139 -98 -161 1 -17 8 -13 41 24 40 44 109
152 109 171 0 19 -19 7 -52 -34z"/>
<path d="M2760 2561 c0 -20 84 -249 116 -317 31 -66 68 -113 79 -102 11 11
-32 123 -106 270 -74 147 -89 173 -89 149z"/>
<path d="M3047 2543 c-8 -13 -11 -172 -4 -180 4 -3 13 -3 22 1 14 5 16 17 10
84 -8 79 -17 112 -28 95z"/>
<path d="M3583 2517 c-18 -12 -32 -25 -33 -28 0 -14 91 -3 100 11 25 39 -19
49 -67 17z"/>
<path d="M2245 2485 c48 -40 242 -125 284 -125 28 0 -78 68 -156 100 -42 18
-92 34 -112 37 -35 4 -35 4 -16 -12z"/>
<path d="M3407 2353 c-4 -3 -7 -19 -7 -34 0 -23 -5 -30 -27 -35 -92 -20 -113
-38 -98 -85 4 -11 31 -64 61 -116 30 -53 54 -101 54 -107 0 -7 -25 -12 -67
-13 -73 -1 -99 -19 -88 -58 18 -68 19 -65 -11 -65 -58 0 -103 -19 -110 -46 -5
-21 1 -34 37 -70 41 -42 42 -44 25 -63 -10 -11 -16 -30 -14 -43 3 -26 -16 -17
393 -164 492 -176 838 -310 1084 -420 285 -127 317 -155 396 -335 77 -175 139
-246 254 -290 79 -30 205 -30 284 0 116 45 205 142 227 247 13 61 5 116 -31
210 -34 89 -21 123 82 222 91 87 130 145 139 208 6 39 5 42 -12 33 -16 -9 -18
-5 -17 33 0 24 3 37 6 31 2 -7 9 -13 15 -13 18 0 2 86 -28 147 -16 35 -55 86
-95 126 -87 88 -173 130 -276 135 -65 4 -79 1 -155 -33 -234 -105 -286 -98
-786 112 -530 221 -746 310 -987 408 -72 29 -145 60 -162 69 -33 16 -75 21
-86 9z m90 -60 c4 -12 -55 -39 -64 -29 -4 3 -1 17 7 30 10 19 17 23 33 17 12
-4 22 -12 24 -18z m768 -358 c563 -237 644 -269 754 -301 94 -28 224 -35 275
-15 16 6 31 10 33 7 9 -8 -75 -57 -123 -72 -62 -18 -110 -18 -217 4 -48 10
-90 15 -92 11 -8 -12 107 -57 177 -70 57 -10 76 -10 135 5 77 19 124 47 203
121 75 71 111 88 174 83 154 -13 317 -176 333 -331 8 -80 -24 -145 -111 -222
-37 -32 -79 -78 -93 -102 -33 -56 -44 -46 -50 44 -4 59 -1 74 22 117 14 27 23
51 20 54 -11 11 -75 -63 -91 -105 -29 -75 -15 -149 51 -277 49 -93 57 -117 58
-165 3 -206 -287 -331 -466 -201 -56 41 -82 80 -153 228 -84 176 -115 207
-300 298 -178 89 -323 151 -604 257 -245 93 -766 283 -874 318 -46 15 -64 25
-56 33 18 18 10 50 -22 83 l-32 33 32 0 c17 0 43 5 58 12 24 11 26 16 22 59
l-5 47 61 4 c43 3 79 -1 127 -17 84 -26 93 -34 109 -91 9 -31 24 -53 46 -71
24 -18 34 -33 34 -53 0 -30 18 -49 70 -75 19 -10 45 -29 57 -44 28 -35 37 -23
14 20 -14 28 -48 54 -92 71 -4 2 -10 18 -14 37 -7 31 -5 33 11 26 47 -20 69
-17 98 14 18 19 33 27 40 22 18 -14 267 -103 273 -98 5 6 -173 98 -250 130
l-38 16 -37 -33 c-33 -30 -40 -33 -56 -21 -10 8 -35 17 -57 20 -35 6 -40 10
-49 48 -27 103 -28 105 -82 123 -76 25 -115 51 -123 82 -3 15 -17 44 -31 64
-13 21 -24 40 -24 43 0 3 36 -13 81 -36 100 -50 239 -102 239 -89 0 13 -126
82 -232 127 -98 41 -145 74 -134 91 4 7 19 12 34 13 15 0 47 8 72 17 l45 18
145 -59 c80 -33 352 -146 605 -252z m-825 20 c10 -13 9 -15 -8 -15 -15 0 -20
5 -16 15 4 8 7 15 9 15 1 0 8 -7 15 -15z m-239 -180 c0 -6 -10 -11 -21 -11
-16 -1 -18 1 -9 13 13 15 31 14 30 -2z m2217 -76 c-10 -6 -18 -17 -18 -25 0
-8 -11 -20 -25 -26 -14 -6 -25 -16 -25 -21 0 -6 -9 1 -21 14 -15 17 -17 25 -7
27 7 2 20 6 28 9 8 4 19 5 23 4 4 0 10 5 13 12 2 7 15 13 27 14 19 2 20 1 5
-8z m-2180 -64 c1 -14 -2 -25 -6 -25 -11 0 -32 37 -25 44 14 14 29 4 31 -19z
m2481 -661 c-5 -6 -7 -19 -3 -28 4 -10 1 -16 -7 -16 -10 0 -10 -3 -1 -12 7 -7
12 -16 12 -21 0 -5 -6 -2 -14 5 -18 19 -50 82 -37 74 6 -4 11 -4 11 1 0 4 11
8 24 8 17 0 21 -3 15 -11z"/>
<path d="M3809 1940 c13 -11 29 -20 36 -20 7 0 20 -3 29 -6 9 -3 16 -1 16 5 0
14 -54 41 -82 41 l-23 -1 24 -19z"/>
<path d="M3380 1701 c0 -5 6 -14 14 -20 18 -15 156 -63 169 -58 13 4 -53 44
-116 68 -53 21 -67 23 -67 10z"/>
<path d="M4572 1249 c2 -6 86 -50 187 -97 169 -79 190 -92 262 -160 50 -47 90
-96 110 -133 18 -32 36 -59 40 -59 12 0 11 3 -6 65 -42 143 -224 277 -511 375
-65 23 -87 25 -82 9z"/>
<path d="M2615 2249 c-22 -12 -47 -27 -55 -34 -24 -20 -354 -226 -630 -392
-373 -226 -949 -507 -1105 -540 -82 -17 -115 -14 -285 28 -152 38 -211 36
-305 -10 -71 -35 -116 -81 -167 -167 -42 -73 -58 -116 -58 -162 0 -34 1 -35
15 -16 13 18 14 16 15 -20 0 -37 -1 -38 -18 -22 -18 16 -19 15 -12 -26 13 -88
65 -146 170 -195 54 -24 64 -34 87 -80 25 -53 25 -56 18 -201 -7 -163 0 -211
41 -275 45 -69 107 -103 228 -126 44 -8 46 -7 40 11 -6 19 -2 20 51 15 31 -3
59 -8 62 -11 4 -3 1 -6 -5 -6 -7 0 -12 -4 -12 -9 0 -13 80 7 117 30 81 50 140
141 224 344 55 134 191 255 489 435 104 63 827 429 1380 698 44 22 60 37 82
77 15 28 28 60 28 72 0 23 -34 53 -60 53 -35 1 -43 16 -26 48 23 44 20 79 -6
93 -13 7 -58 12 -105 11 -46 0 -83 4 -83 9 0 5 4 9 8 9 17 0 122 113 128 137
12 45 -15 58 -116 58 -50 0 -90 0 -90 2 0 1 9 17 19 35 11 18 23 52 27 74 5
36 3 44 -17 58 -29 20 -26 20 -74 -5z m45 -54 c0 -22 -29 -69 -30 -48 0 6 -10
15 -21 18 -17 6 -19 9 -8 16 12 7 11 9 -1 9 -17 0 29 26 48 26 6 1 12 -9 12
-21z m-73 -94 c-15 -27 -27 -56 -27 -65 0 -9 -22 -27 -52 -42 -73 -37 -218
-133 -218 -145 0 -12 158 68 229 115 49 33 61 37 138 41 47 3 89 7 94 11 5 3
9 1 9 -4 0 -5 -34 -37 -75 -71 -41 -33 -86 -79 -99 -100 -17 -27 -37 -43 -63
-52 -21 -6 -70 -27 -109 -46 l-71 -33 -48 20 c-25 11 -51 20 -56 20 -5 0 -32
-17 -59 -39 -27 -21 -65 -42 -84 -45 -20 -4 -36 -12 -36 -17 0 -19 83 1 135
33 48 29 50 29 82 14 19 -9 43 -16 53 -16 24 0 24 -3 5 -55 -14 -36 -24 -44
-103 -82 -93 -45 -278 -161 -269 -169 2 -3 90 38 193 90 l189 94 34 66 c37 71
43 75 173 111 36 10 62 24 72 39 14 22 21 24 120 24 58 1 106 -1 106 -3 0 -2
-7 -20 -16 -38 -12 -26 -32 -42 -75 -63 -33 -15 -69 -39 -81 -52 l-23 -24 25
7 c14 4 51 21 82 37 53 28 58 29 73 14 9 -9 26 -16 38 -16 12 0 28 -4 35 -8
29 -19 -6 -47 -137 -109 -344 -166 -1034 -508 -1144 -569 -346 -192 -587 -377
-644 -494 -13 -25 -41 -89 -64 -144 -47 -109 -99 -185 -154 -224 -86 -61 -285
-29 -358 58 -41 48 -48 90 -41 250 5 115 3 154 -9 188 -8 23 -12 42 -8 42 3 0
31 -17 61 -38 37 -25 65 -54 85 -89 17 -29 33 -52 38 -53 11 0 9 42 -4 81 -30
88 -101 145 -237 189 -118 38 -165 68 -193 127 -27 55 -22 99 19 187 81 173
204 233 377 185 196 -53 285 -57 413 -17 60 18 418 181 607 275 219 110 936
541 1055 634 19 15 37 25 39 23 2 -2 -8 -26 -22 -53z m59 -35 c1 -8 -9 -16
-22 -19 -23 -4 -23 3 1 29 11 13 18 10 21 -10z m148 -22 c17 -7 22 -44 6 -44
-9 0 -30 31 -30 44 0 8 5 7 24 0z m-79 -181 c6 -21 3 -23 -29 -23 -42 0 -44 5
-14 37 23 25 32 22 43 -14z m-2387 -1183 c2 -5 9 -7 15 -3 6 3 2 -5 -9 -19
-23 -30 -33 -28 -56 13 l-18 30 32 -5 c18 -3 34 -10 36 -16z"/>
<path d="M2625 1553 c-52 -20 -245 -134 -245 -144 0 -12 41 5 163 68 98 52
136 78 126 87 -2 2 -22 -3 -44 -11z"/>
<path d="M1325 1332 c-74 -39 -205 -100 -345 -162 -98 -43 -222 -74 -265 -65
-122 23 -149 13 -52 -19 101 -34 234 -13 380 60 85 42 355 202 362 215 11 16
-8 9 -80 -29z"/>
<path d="M1084 744 c-135 -90 -208 -185 -233 -303 -13 -63 0 -93 20 -45 65
157 101 205 237 316 63 52 81 78 53 78 -4 0 -38 -21 -77 -46z"/>
<path d="M3038 2228 c-6 -55 2 -119 13 -112 12 7 12 154 0 154 -4 0 -11 -19
-13 -42z"/>
<path d="M3120 2065 c-7 -8 -15 -35 -18 -60 -5 -44 -4 -45 25 -45 34 0 73 36
73 68 0 21 -34 52 -56 52 -6 0 -17 -7 -24 -15z m40 -39 c0 -7 -7 -19 -15 -26
-16 -13 -20 -3 -9 24 8 20 24 21 24 2z"/>
<path d="M2943 1983 c-16 -6 -17 -35 -1 -51 14 -14 44 -16 53 -3 8 13 -37 60
-52 54z"/>
<path d="M3060 1715 c-15 -18 -6 -45 15 -45 9 0 15 9 15 24 0 31 -14 40 -30
21z"/>
<path d="M3113 1448 c7 -71 24 -128 39 -128 11 0 2 106 -13 158 -18 56 -32 38
-26 -30z"/>
<path d="M3000 1404 c-28 -93 -75 -404 -61 -404 16 0 101 368 101 434 0 50
-20 35 -40 -30z"/>
<path d="M3242 1353 c20 -72 128 -263 149 -263 12 0 12 -2 -17 71 -53 132
-110 229 -135 229 -4 0 -3 -17 3 -37z"/>
<path d="M3380 1361 c0 -18 81 -111 96 -111 12 0 11 6 -7 33 -45 65 -89 104
-89 78z"/>
<path d="M2841 1273 c-42 -64 -123 -231 -119 -245 5 -13 122 165 142 214 37
91 26 105 -23 31z"/>
<path d="M3577 1303 c-13 -12 -7 -32 13 -43 29 -16 41 -4 28 25 -11 24 -28 32
-41 18z"/>
<path d="M2626 1201 c-37 -40 5 -82 45 -45 24 22 26 59 2 50 -9 -4 -19 -2 -23
4 -4 7 -13 3 -24 -9z"/>
<path d="M3067 1085 c-9 -22 3 -46 22 -43 10 2 16 13 16 28 0 28 -29 40 -38
15z"/>
<path d="M3645 1060 c-9 -14 2 -28 36 -45 29 -16 38 -38 18 -50 -6 -4 -18 3
-27 16 -51 73 -82 71 -40 -2 28 -52 51 -68 75 -53 28 18 54 59 48 76 -8 21
-102 71 -110 58z"/>
<path d="M3217 1046 c-5 -13 17 -226 29 -284 3 -15 17 -28 42 -38 20 -8 62
-26 94 -41 77 -36 93 -28 83 40 -4 28 -10 80 -14 114 l-6 61 -87 81 c-86 81
-128 101 -141 67z m89 -147 c30 -65 47 -59 19 7 -8 20 -14 38 -13 40 2 1 22
-15 46 -37 35 -33 42 -46 42 -77 0 -20 4 -53 10 -71 5 -19 8 -36 7 -37 -2 -2
-24 7 -50 21 -26 13 -52 25 -58 27 -11 4 -50 188 -39 188 3 0 20 -28 36 -61z"/>
<path d="M2754 856 c-18 -13 -53 -23 -91 -25 -6 -1 -32 -31 -58 -67 -51 -73
-52 -95 -5 -119 16 -8 37 -28 46 -44 21 -36 55 -52 93 -45 41 9 57 31 65 89 3
28 14 83 23 124 17 71 17 74 -2 87 -24 18 -45 18 -71 0z m30 -63 c-4 -16 -10
-37 -15 -49 -4 -11 -10 -46 -14 -77 -9 -74 -27 -77 -87 -13 -47 49 -47 50 -29
70 10 12 24 31 30 44 14 27 47 31 36 5 -18 -45 -14 -45 26 0 48 54 62 59 53
20z"/>
</g>
</svg>
