<svg width="200" height="200" viewBox="0 0 24 24" fill="none" xmlns="http://www.w3.org/2000/svg">
  <path d="M12 22 C 11.5 20, 11.5 18, 12 17 L 9 16 L 7 17 L 6 14 L 4 15 L 5 10 L 4 8 L 6 5 L 9 3 L 12 4 L 15 3 L 18 5 L 20 8 L 19 10 L 20 15 L 18 14 L 17 17 L 15 16 L 12 17" 
        stroke="black" stroke-width="2" stroke-linecap="round" stroke-linejoin="round"/>
  
  <path d="M12 17 L 12 13 M 12 10 L 12 6" 
        stroke="black" stroke-width="2" stroke-linecap="round" stroke-linejoin="round"/>
        
  <path d="M9 10 L 10 11" stroke="black" stroke-width="2" stroke-linecap="round" stroke-linejoin="round"/>
  <path d="M15 8 L 14 9" stroke="black" stroke-width="2" stroke-linecap="round" stroke-linejoin="round"/>
  <circle cx="8" cy="13" r="1" fill="black"/>
</svg>