<svg xmlns="http://www.w3.org/2000/svg" width="100" height="100" viewBox="0 0 100 100" fill="none">
  <defs>
    <path id="echoWave" d="M50 10 L 60 25 L 85 20 L 70 45 L 90 65 L 65 70 L 50 95 L 35 70 L 10 65 L 30 45 L 15 20 L 40 25 Z" />
  </defs>

  <g transform="translate(50,50) scale(1.3) translate(-50,-50)" opacity="0.4">
    <use href="#echoWave" fill="none" stroke="#7B1FA2" stroke-width="2" stroke-linejoin="round"/>
  </g>

  <g transform="translate(50,50) scale(1.0) translate(-50,-50)" opacity="0.7">
     <use href="#echoWave" fill="none" stroke="#AB47BC" stroke-width="3" stroke-linejoin="round"/>
  </g>

  <g fill="#D32F2F" stroke="#B71C1C" stroke-width="2" stroke-linejoin="round">
    <path d="M50 25 L 58 40 L 78 38 L 65 52 L 72 70 L 55 62 L 50 78 L 45 62 L 28 70 L 35 52 L 22 38 L 42 40 Z" />
  </g>

  <circle cx="50" cy="50" r="5" fill="#FFCDD2" opacity="0.8"/>

</svg>