<svg width="64px" height="64px" viewBox="0 0 64 64" xmlns="http://www.w3.org/2000/svg">
  <defs>
    <linearGradient id="shieldRimGrad" x1="0%" y1="0%" x2="100%" y2="100%">
      <stop offset="0%" style="stop-color:#B0BEC5;stop-opacity:1" />
      <stop offset="100%" style="stop-color:#78909C;stop-opacity:1" />
    </linearGradient>
    
    <radialGradient id="aggroGrad" cx="50%" cy="50%" r="50%" fx="50%" fy="50%">
      <stop offset="60%" style="stop-color:#FF5722;stop-opacity:1" />
      <stop offset="100%" style="stop-color:#BF360C;stop-opacity:1" />
    </radialGradient>

     <filter id="tauntGlow">
      <feGaussianBlur stdDeviation="1" result="coloredBlur"/>
      <feMerge>
        <feMergeNode in="coloredBlur"/>
        <feMergeNode in="SourceGraphic"/>
      </feMerge>
    </filter>
  </defs>

  <g stroke="url(#aggroGrad)" stroke-width="3" fill="none" stroke-linecap="round" filter="url(#tauntGlow)">
    <path d="M24 8 L20 2" />
    <path d="M40 8 L44 2" />
    <path d="M8 24 L2 20" />
    <path d="M56 24 L62 20" />
    <path d="M12 48 L6 54" />
    <path d="M52 48 L58 54" />
  </g>

  <path d="M32 6 C 32 6, 10 14, 10 36 C 10 50, 32 60, 32 60 C 32 60, 54 50, 54 36 C 54 14, 32 6, 32 6 Z" fill="#263238" stroke="url(#shieldRimGrad)" stroke-width="3" />
  
  <g filter="url(#tauntGlow)">
    <circle cx="32" cy="34" r="14" fill="#D84315" stroke="#FF5722" stroke-width="2"/>
    <circle cx="32" cy="34" r="9" fill="#FFC107" />
    <circle cx="32" cy="34" r="5" fill="#D84315" />
  </g>

</svg>